# xmcd CD database file
#
# Track frame offsets:
#	150
#	8994
#	18368
#	25430
#	33375
#	51324
#	63424
#	71185
#	98384
#	112873
#	126264
#	138326
#	154474
#	166705
#
# Disc length: 2364 seconds
#
# Revision: 0
# Processed by: cddbd v1.5.1PL0 Copyright (c) Steve Scherf et al.
# Submitted via: CDex 1.51
#
DISCID=b7093a0e
DTITLE=Tim Janis - Christmas Piano Collection
DYEAR=2004
DGENRE=New Age
TTITLE0=Angels We Have Heard On High
TTITLE1=O Come All Ye Faithful
TTITLE2=Carol Of The Bells
TTITLE3=Silent Night
TTITLE4=O Holy Night
TTITLE5=Joy To The World
TTITLE6=O Little Town Of Bethlehem
TTITLE7=Avé Maria
TTITLE8=Away In A Manger
TTITLE9=O Come, O Come Emanuel
TTITLE10=The First Noel
TTITLE11=What Child Is This
TTITLE12=Good Christian Men Rejoice
TTITLE13=Sheep May Safely Graze
EXTD=YEAR: 2004
EXTT0=
EXTT1=
EXTT2=
EXTT3=
EXTT4=
EXTT5=
EXTT6=
EXTT7=
EXTT8=
EXTT9=
EXTT10=
EXTT11=
EXTT12=
EXTT13=
PLAYORDER=
